<?xml version="1.0" encoding="utf-8"?>
<!-- Generator: Adobe Illustrator 24.0.1, SVG Export Plug-In . SVG Version: 6.00 Build 0)  -->
<svg version="1.1" xmlns="http://www.w3.org/2000/svg" xmlns:xlink="http://www.w3.org/1999/xlink" x="0px" y="0px"
	 viewBox="0 0 581.8 687.3" style="enable-background:new 0 0 581.8 687.3;" xml:space="preserve">
<style type="text/css">
	.st0{fill:#E8A32C;}
	.st1{fill:#EDB849;}
	.st2{fill:#F7BF5C;}
	.st3{fill:#EAA0A0;}
	.st4{fill:#F8ADAC;}
	.st5{fill:#3E3D40;}
	.st6{fill:#58595A;}
</style>
<g id="BG">
</g>
<g id="Object">
	<g>
		<g>
			<circle class="st0" cx="295.9" cy="116.7" r="102.6"/>
		</g>
		<g>
			<circle class="st1" cx="295.9" cy="116.7" r="87.1"/>
		</g>
		<g>
			<path class="st0" d="M341.5,42.4c8.7,13.5,13.7,29.6,13.7,46.9c0,48.1-39,87.1-87.1,87.1c-16.7,0-32.3-4.7-45.6-12.9
				c15.5,24.2,42.6,40.2,73.4,40.2c48.1,0,87.1-39,87.1-87.1C383,85.2,366.4,57.7,341.5,42.4z"/>
		</g>
		<g>
			<path class="st2" d="M224.1,124.7c0-42.5,34.4-76.9,76.9-76.9c24.8,0,46.9,11.8,60.9,30c-13.3-23-38.2-38.6-66.7-38.6
				c-42.5,0-76.9,34.4-76.9,76.9c0,17.6,5.9,33.9,15.9,46.9C227.8,151.7,224.1,138.6,224.1,124.7z"/>
		</g>
		<path class="st3" d="M187,664.1h-39.6c-7.2,0-13-5.8-13-13l-10.9-74.6c0-7.2,5.8-13,13-13h61.4c7.2,0,13,5.8,13,13L200,651.1
			C200,658.3,194.1,664.1,187,664.1z"/>
		<path class="st3" d="M454.1,664.1h-39.6c-7.2,0-13-5.8-13-13l-10.9-74.6c0-7.2,5.8-13,13-13H465c7.2,0,13,5.8,13,13L467,651.1
			C467,658.3,461.2,664.1,454.1,664.1z"/>
		<path class="st4" d="M532.4,451.1c0,111-105.9,201-236.5,201s-236.5-90-236.5-201s80.8-207.6,236.5-207.6
			C451.7,243.5,532.4,340.1,532.4,451.1z"/>
		<path class="st3" d="M123.5,553.7l-36.4-0.2c-31.5,1.5-45.5-7.2-51.5-29.5l-20-73.3c-4.1-14.9,4.8-30.5,19.8-34.6l45.2-12.3
			c22.3-6.1,45.5,7.2,51.5,29.5l18.5,64.4C156.7,520,145.8,547.7,123.5,553.7z"/>
		<path class="st3" d="M199.5,284c-0.6-0.5-64-52.5-135.7-26.2c-0.8,0.3-1.3,1-1.4,1.8c-0.1,0.8-8.2,82.3,70.5,123.4
			c0.3,0.2,0.7,0.2,1,0.2c0.7,0,1.4-0.3,1.8-1l64.3-95.4C200.5,286,200.3,284.7,199.5,284z"/>
		<path class="st4" d="M560.5,353.3c-5-1.6-10.1,0.4-12.8,4.9c-13.8,22.9-38.5,27.3-49,29.2c-3.9,0.7-5.7,1-7.4,2.5
			c-2.1,1.7-2.9,4.6-2,7.1l17.3,50.5c0.6,1.7,1.8,3.1,3.5,3.8c0.9,0.4,1.8,0.6,2.7,0.6c0.8,0,1.7-0.2,2.5-0.5
			c42.7-17.3,51.6-61.8,53.1-86.8C568.6,359.4,565.5,354.9,560.5,353.3z"/>
		<circle class="st5" cx="144.3" cy="403.8" r="14.3"/>
		<g>
			<path class="st6" d="M364.3,300.9c-70.1-23.7-133.7-0.4-134.3-0.1l-6.9-18.4c2.9-1.1,70.8-26.1,147.5-0.1L364.3,300.9z"/>
		</g>
		<path class="st3" d="M126.4,591.3c43,37.5,103,60.8,169.4,60.8c128.2,0,232.6-86.7,236.4-194.9
			C402.6,630.5,210.9,609.2,126.4,591.3z"/>
		<path class="st4" d="M24.3,457.2c0,0-12.9-32.3,37.7-40.7C62,416.5,33.1,430.8,24.3,457.2z"/>
		<path class="st4" d="M69.6,264.9c0,0,18.5-10.3,33.6-7.6c0,0-23.3,19.2-13.7,76.9C89.5,334.3,69.6,302.7,69.6,264.9z"/>
		<path class="st5" d="M290.1,290.4c21.7-0.8,47.4,1.4,74.2,10.5l6.3-18.6L290.1,290.4L290.1,290.4z"/>
	</g>
</g>
</svg>
