<?xml version="1.0" encoding="utf-8"?>
<!-- Generator: Adobe Illustrator 24.0.1, SVG Export Plug-In . SVG Version: 6.00 Build 0)  -->
<svg version="1.1" id="Layer_1" xmlns="http://www.w3.org/2000/svg" xmlns:xlink="http://www.w3.org/1999/xlink" x="0px" y="0px"
	 viewBox="0 0 200 175.9" style="enable-background:new 0 0 200 175.9;" xml:space="preserve">
<style type="text/css">
	.st0{fill:#F7B3B9;}
	.st1{fill:#E97A7F;}
	.st2{fill:#F5989B;}
	.st3{fill:#D95D6A;}
	.st4{opacity:0.32;fill:#FFFFFF;enable-background:new    ;}
	.st5{fill:#F5989B;stroke:#E97A7F;stroke-width:2;stroke-miterlimit:10;}
	.st6{opacity:0.59;}
	.st7{opacity:0.3;fill:#FFFFFF;enable-background:new    ;}
	.st8{fill:#DD6B76;}
	.st9{fill:#192E35;}
</style>
<g id="Group_7" transform="translate(1883.445 1525.049)">
	<path id="Path_2" class="st0" d="M-1842.6-1384.4l10.1,30.3c0.6,1.7,2.1,2.8,3.9,2.8h15.7c1.6,0,3.1-1,3.8-2.5l7-16.3"/>
	<path id="Path_3" class="st1" d="M-1837.5-1384.4l8.4,30.3c0.5,1.7,1.8,2.8,3.2,2.8h13.1c1.4,0,2.6-1,3.1-2.5l5.8-16.3"/>
	<path id="Path_4" class="st0" d="M-1731.7-1384.4l-10.1,30.3c-0.6,1.7-2.1,2.8-3.9,2.8h-15.7c-1.6,0-3.1-1-3.8-2.5l-7-16.3"/>
	<path id="Path_5" class="st1" d="M-1738.8-1384.4l-6.9,30.3c-0.4,1.7-1.5,2.8-2.7,2.8h-10.8c-1.1,0-2.1-1-2.6-2.5l-6.7-16"/>
	<path id="Path_6" class="st2" d="M-1832.7-1501.4c0,0-12-6-23.7-9.6c-11.7-3.6-25.5-0.3-25.8,3.6s1.8,2.1,4.5,6.3
		s1.5,14.1,5.4,23.1c3.9,9,15.6,13.5,15.6,13.5L-1832.7-1501.4z"/>
	<path id="Path_7" class="st1" d="M-1840.5-1492.7c0,0-18-11.4-28.5-15.3c-10.5-3.9-11.1,1.8-11.1,1.8s5.7,1.8,5.7,8.5
		s3.4,20.7,11.5,23.6C-1854.7-1471.2-1840.5-1492.7-1840.5-1492.7z"/>
	<g id="Group_1" transform="translate(498.214 175.779)">
		<path id="Path_8" class="st1" d="M-2198.5-1614.9c-4.3,0-8.5-2.8-10.2-7.3c-2.2-5.7,0.4-12,5.8-14c5.4-2,11.5,0.9,13.6,6.6
			c1,2.7,1,5.7-0.1,8.3c-1,2.6-3.1,4.7-5.7,5.7C-2196.2-1615.1-2197.4-1614.9-2198.5-1614.9z M-2199.4-1634.3
			c-0.9,0-1.8,0.2-2.6,0.5c-4,1.5-6,6.4-4.3,10.7s6.3,6.7,10.4,5.2c2-0.8,3.5-2.3,4.3-4.3c0.8-2.1,0.8-4.4,0-6.5
			C-2193-1632.1-2196.2-1634.3-2199.4-1634.3L-2199.4-1634.3z"/>
	</g>
	<g id="Group_2" transform="translate(508.112 158.391)">
		<path id="Path_9" class="st1" d="M-2205.3-1604.6c-5.2,0-9.8-3.5-10.7-8.5c-0.1-0.7,0.3-1.3,1-1.5c0.7-0.1,1.4,0.3,1.5,1l0,0
			c0.7,4.3,5.1,7.1,9.7,6.3s7.8-4.9,7.1-9.2c-0.4-2.1-1.6-3.9-3.4-5c-1.9-1.2-4.2-1.7-6.4-1.3c-0.7,0.1-1.4-0.3-1.5-1s0.3-1.4,1-1.5
			c2.8-0.5,5.8,0.1,8.2,1.7c2.4,1.5,4,3.9,4.5,6.7c1,5.6-3.1,11.1-9.1,12.1C-2203.9-1604.7-2204.6-1604.6-2205.3-1604.6z"/>
	</g>
	<path id="Path_10" class="st3" d="M-1765.1-1384.4l-10.1,30.3c-0.6,1.7-2.1,2.8-3.9,2.8h-15.7c-1.6,0-3.1-1-3.8-2.5l-7-16.3"/>
	<ellipse id="Ellipse_1" class="st2" cx="-1785.6" cy="-1442.9" rx="86.6" ry="78.5"/>
	<path id="Path_11" class="st0" d="M-1724.9-1498.9c5,9.9,7.7,24.8,7.7,36.4c0,43.4-38.8,78.5-86.6,78.5c-18.7,0-38.3-4.4-52.5-13.6
		c15.1,20.3,38.1,32.7,70.7,33.1c43.6,0.5,85.3-30,86.5-77.3C-1698.5-1462.8-1707.8-1485.5-1724.9-1498.9z"/>
	<path id="Path_12" class="st4" d="M-1704.3-1435.9c-0.1,3.9-0.7,7.9-1.7,11.7c-1,3.8-2.4,7.5-4.1,11.1c-1.7,3.6-3.8,6.9-6.2,10.1
		c-2.4,3.2-5.1,6-8,8.6c2.5-3.1,4.8-6.2,7-9.4c2.1-3.2,4.1-6.6,5.8-10.1c1.7-3.5,3.2-7.1,4.4-10.7
		C-1706.1-1428.3-1705.1-1432.1-1704.3-1435.9z"/>
	<path id="Path_13" class="st5" d="M-1768.6-1461.7c0,0,8.4-5.7,8.7-16.2c0.3-10.5-13.5-25.8-24.6-32.1c-11.1-6.3-19.2-5.1-19.5-0.6
		c-0.3,4.5-4.2,9.6-5.7,18.3c-1.5,8.7-2.1,21.6,9.6,25.8"/>
	<path id="Path_14" class="st1" d="M-1786.7-1465.1c0.6,0.1,1.2,0.2,1.7,0.3c7.4,1.1,10-3.8,9.8-11c-0.3-10.2-13.8-31.8-19.5-34.8
		s-7.5,1.2-7.5,1.2s0.8,0.5-2,9.9c-1.3,4.3-6.1,19.3-1.3,26C-1801.4-1467.7-1793.5-1466.1-1786.7-1465.1z"/>
	<g id="Group_3" transform="translate(300.481 60.444)" class="st6">
		<path id="Path_15" class="st7" d="M-2066.8-1535.9c0,0-0.1,0-0.1,0c-0.4-0.1-0.7-0.5-0.7-0.9c0.1-0.6,0.1-1.2,0.2-1.9
			c0.2-5.6-4.4-13.6-11.9-21.1c-0.3-0.3-0.3-0.8,0-1.1s0.8-0.3,1.1,0c7.9,7.8,12.6,16.2,12.4,22.2c0,0.7-0.1,1.4-0.2,2
			C-2066.1-1536.2-2066.4-1535.9-2066.8-1535.9z"/>
	</g>
	<g id="Group_4" transform="translate(322.959 141.14)" class="st6">
		<path id="Path_16" class="st7" d="M-2093.6-1606.9c-0.4,0-0.8-0.4-0.8-0.8c0-0.2,0.1-0.4,0.2-0.5c1.3-1.6,2.4-3.4,3.1-5.4
			c0.2-0.4,0.6-0.6,1-0.5c0.4,0.2,0.6,0.6,0.5,1c-0.8,2.1-1.9,4.1-3.4,5.8C-2093.1-1607-2093.3-1606.9-2093.6-1606.9z"/>
	</g>
	
		<ellipse id="Ellipse_2" transform="matrix(0.242 -0.9703 0.9703 0.242 -10.0135 -2879.6606)" class="st8" cx="-1848.1" cy="-1433.4" rx="17.7" ry="23.4"/>
	
		<ellipse id="Ellipse_3" transform="matrix(0.2421 -0.9703 0.9703 0.2421 -9.1442 -2881.9919)" class="st1" cx="-1849.2" cy="-1435.1" rx="17.7" ry="23.4"/>
	<path id="Path_17" class="st9" d="M-1856.3-1438c0.1,2.1-0.7,4-1.8,4c-1.2,0.1-2.2-1.6-2.4-3.8s0.7-4,1.8-4
		S-1856.4-1440.1-1856.3-1438z"/>
	<path id="Path_18" class="st9" d="M-1840.5-1434c0.1,2.1-0.7,4-1.8,4c-1.2,0.1-2.2-1.6-2.4-3.8s0.7-4,1.8-4
		C-1841.7-1437.8-1840.6-1436.2-1840.5-1434z"/>
	<g id="Group_5" transform="translate(84.49 270.614)">
		<path id="Path_19" class="st9" d="M-1924.8-1679.2c-4.4,0-8.8-0.7-13-2.1l0.5-1.6c16.1,5.2,32.2,0,36.6-11.9
			c0.5-1.4,0.9-2.8,1-4.3l1.7,0.2c-0.2,1.6-0.6,3.2-1.1,4.7C-1902.5-1684.8-1912.8-1679.2-1924.8-1679.2z"/>
	</g>
	<g id="Group_6" transform="translate(190.265 266.228)">
		<rect id="Rectangle_7" x="-2007.2" y="-1696.3" class="st9" width="5.1" height="0.8"/>
	</g>
	<path id="Path_20" class="st9" d="M-1849.4-1462.8c-0.6,2.3-2,4-3.2,3.7c-1.2-0.3-1.7-2.4-1.2-4.8c0.6-2.3,2-4,3.2-3.7
		C-1849.4-1467.3-1848.8-1465.2-1849.4-1462.8z"/>
	
		<ellipse id="Ellipse_4" transform="matrix(0.2341 -0.9722 0.9722 0.2341 12.6798 -2904.2119)" class="st9" cx="-1836.8" cy="-1460.2" rx="4.3" ry="2.2"/>
	<path id="Path_21" class="st0" d="M-1812.6-1374.7l8.8,20.9c0.6,1.5,2.1,2.5,3.8,2.5h16c1.6,0,3.1-1,3.8-2.5l9.6-22.2l-0.4,0"/>
	<path id="Path_22" class="st1" d="M-1794-1377.3c-5.1,0-11,0.7-15.8-0.4l8.2,23.9c0.5,1.5,1.8,2.5,3.1,2.5h13.2
		c1.4,0,2.6-1,3.1-2.5l8-24.4l-3.2,0.4C-1787.5-1376.6-1787.2-1377.3-1794-1377.3z"/>
</g>
</svg>
